 <svg version="1.0" xmlns="http://www.w3.org/2000/svg"  width="300.000000pt" height="300.000000pt" viewBox="0 0 300.000000 300.000000"  preserveAspectRatio="xMidYMid meet">  <g transform="translate(0.000000,300.000000) scale(0.100000,-0.100000)" fill="#000000" stroke="none"> <path d="M1687 2536 c-27 -7 -60 -24 -73 -38 l-25 -24 -51 25 c-41 20 -71 26 -143 29 -110 5 -188 -14 -238 -58 l-34 -29 -49 16 c-33 11 -86 16 -159 16 -135 1 -206 -23 -273 -88 -35 -35 -42 -49 -42 -81 0 -22 9 -53 20 -71 l19 -32 -25 9 c-61 24 -144 2 -196 -50 -32 -31 -38 -44 -38 -79 0 -54 21 -94 66 -125 35 -23 35 -25 15 -35 -27 -15 -51 -62 -51 -99 0 -71 105 -152 197 -152 37 0 49 -6 82 -39 96 -96 313 -146 478 -111 46 10 52 9 106 -22 53 -30 57 -36 54 -63 -3 -16 -24 -186 -48 -377 l-44 -348 -265 -1 c-231 0 -261 -2 -230 -14 19 -7 136 -58 258 -114 123 -56 228 -101 233 -101 18 0 6 -29 -90 -210 -54 -102 -98 -186 -97 -187 2 -2 29 10 62 25 32 16 151 70 264 121 l205 92 220 -99 c121 -54 240 -109 264 -120 25 -12 45 -21 47 -19 1 1 -43 85 -97 187 -96 181 -108 210 -90 210 5 0 110 45 233 101 122 56 239 107 258 114 30 12 -2 14 -250 14 l-285 1 -48 380 -48 379 35 32 c20 17 36 37 36 45 0 17 -3 17 67 -1 68 -18 142 -19 215 -4 126 27 219 107 210 180 -1 4 15 10 35 14 110 20 206 82 245 158 26 53 28 130 2 177 -12 24 -18 57 -18 106 -1 60 -5 77 -29 113 -28 42 -108 91 -149 91 -12 0 -18 8 -18 21 0 32 -62 85 -122 105 -100 34 -289 16 -329 -32 -10 -13 -16 -12 -38 9 -60 56 -150 77 -234 53z m143 -28 c19 -6 52 -25 72 -41 l38 -30 57 29 c52 26 68 29 148 28 141 0 203 -26 238 -97 15 -30 27 -39 63 -48 25 -7 62 -27 87 -49 l42 -38 2 -81 c1 -55 6 -89 17 -106 9 -13 18 -45 21 -71 5 -37 1 -57 -20 -98 -38 -76 -76 -101 -224 -147 -38 -12 -46 -19 -54 -48 -13 -50 -36 -80 -80 -102 -95 -49 -202 -61 -318 -37 l-58 12 -52 -52 -52 -52 6 -88 c4 -48 13 -135 21 -193 8 -57 17 -122 20 -144 36 -299 40 -328 59 -351 l19 -25 205 1 c113 1 207 -1 210 -3 2 -3 -6 -8 -19 -12 -13 -4 -59 -25 -103 -45 -44 -20 -124 -57 -178 -80 -54 -24 -102 -51 -108 -61 -6 -13 -4 -27 10 -51 46 -84 143 -280 139 -284 -3 -2 -42 14 -87 36 -45 22 -83 40 -86 40 -2 0 -32 13 -67 29 -35 16 -98 45 -142 65 l-79 36 -161 -71 c-88 -40 -172 -77 -186 -85 -43 -23 -120 -53 -120 -47 0 5 60 126 123 246 20 38 33 75 30 84 -5 12 -158 93 -177 93 -3 0 -51 22 -108 48 -57 27 -110 51 -118 55 -8 3 71 6 177 6 l192 1 19 25 c14 17 22 48 26 102 4 43 11 105 16 138 10 63 13 88 30 220 6 44 12 90 14 102 3 12 8 65 12 117 l7 94 -29 18 c-16 9 -45 28 -65 41 -33 21 -39 22 -95 12 -32 -6 -106 -9 -164 -7 -128 6 -215 37 -289 104 -28 26 -59 44 -72 44 -13 0 -42 5 -64 11 -127 33 -170 112 -106 193 26 32 28 41 19 61 -6 14 -14 22 -19 20 -4 -3 -19 9 -33 26 -30 36 -35 96 -10 134 21 33 84 55 155 55 65 0 83 15 61 51 -15 23 -15 84 -2 110 44 81 260 123 414 80 54 -15 73 -17 88 -8 10 7 18 15 18 19 0 12 75 47 117 55 78 16 182 6 249 -22 l63 -27 35 27 c56 42 138 56 206 33z"/> </g> </svg> 
