<svg width="195" height="250" xmlns="http://www.w3.org/2000/svg" xmlnsSvg="http://www.w3.org/2000/svg" preserveAspectRatio="xMidYMid meet" version="1.0">
 <!-- Created with SVG-edit - https://github.com/SVG-Edit/svgedit-->
 <g class="layer">
  <title>Layer 1</title>
  <path d="m74.79,242.96c-7.89,-6.67 -1.44,-18.45 -0.97,-27.09c3.41,-9.24 3.26,-70.52 -9,-70.75c-13.02,-3.95 -27.83,1.51 -39.77,-6.24c-8.09,-4.79 -10.6,-14.56 -10.39,-23.34c0.16,-9.1 -9.01,-12.93 -11.97,-20.56c-3.99,-9.52 -0.55,-20.39 6.3,-27.64c6.47,-7.39 0.79,-17.07 4.1,-25.15c4.72,-11 18.84,-6.13 26.42,-13.7c8.14,-5.75 15.08,-15.69 26.36,-14.22c10.89,0.69 23.05,2.64 32.27,-4.77c8.59,-7.18 20.62,-11.03 31.4,-6.61c10.23,3.16 21.87,9.76 21.92,21.89c-3.12,12.45 8.68,12.3 17.16,14.01c10.05,4.53 20.4,11.56 24.56,22.14c1.11,12.1 -12.6,22.13 -6.38,34.49c2.44,12.04 -8.03,18.72 -15.55,25.24c-3.1,11.78 -14.83,21.35 -27.45,18.55c-10.16,-1.67 -16.43,9.44 -26.79,8.47c-6.87,7.07 -2.19,67.72 -0.92,76.09c5.17,10.35 -2.04,21.79 -13.68,21.44c-9.12,1.09 -19.06,1.61 -27.63,-2.25z" fill="#007f00" id="svg_5" stroke="#000000"/>
 </g>
</svg>
